<svg width="50" height="50" viewBox="0 0 50 50" fill="none" xmlns="http://www.w3.org/2000/svg">
<path d="M13.7124 4.08788C13.8624 4.08745 13.8624 4.08745 14.0154 4.087C14.3492 4.08616 14.683 4.08601 15.0168 4.08586C15.2566 4.08541 15.4965 4.08492 15.7364 4.08439C16.3873 4.08311 17.0383 4.08248 17.6892 4.08205C18.0964 4.08178 18.5037 4.08136 18.9109 4.08092C20.0404 4.07973 21.17 4.07873 22.2995 4.0784C22.4078 4.07836 22.4078 4.07836 22.5183 4.07833C22.5906 4.07831 22.663 4.07829 22.7375 4.07827C22.8841 4.07822 23.0307 4.07818 23.1774 4.07814C23.2501 4.07811 23.3228 4.07809 23.3977 4.07807C24.5743 4.07769 25.7509 4.07598 26.9274 4.07371C28.1381 4.07138 29.3488 4.07017 30.5596 4.07006C31.2382 4.06997 31.9169 4.06942 32.5955 4.06764C33.2346 4.06596 33.8737 4.06582 34.5128 4.06667C34.7462 4.06675 34.9797 4.06633 35.2132 4.06536C38.3136 4.05323 40.981 4.6763 43.274 6.89701C45.09 8.73278 45.9145 11.1574 45.9122 13.7124C45.9126 13.8624 45.9126 13.8624 45.9131 14.0154C45.9139 14.3492 45.9141 14.683 45.9142 15.0168C45.9147 15.2566 45.9152 15.4965 45.9157 15.7364C45.917 16.3873 45.9176 17.0383 45.918 17.6892C45.9183 18.0964 45.9187 18.5037 45.9191 18.9109C45.9203 20.0404 45.9213 21.1699 45.9217 22.2995C45.9217 22.3717 45.9217 22.4439 45.9217 22.5183C45.9218 22.5906 45.9218 22.663 45.9218 22.7375C45.9218 22.8841 45.9219 23.0307 45.9219 23.1773C45.922 23.2501 45.922 23.3228 45.922 23.3977C45.9224 24.5743 45.9241 25.7509 45.9264 26.9274C45.9287 28.1381 45.9299 29.3488 45.93 30.5596C45.9301 31.2382 45.9307 31.9169 45.9324 32.5955C45.9341 33.2346 45.9342 33.8737 45.9334 34.5128C45.9333 34.7462 45.9337 34.9797 45.9347 35.2132C45.9468 38.3136 45.3238 40.981 43.1031 43.274C41.2673 45.09 38.8427 45.9145 36.2877 45.9122C36.1377 45.9126 36.1377 45.9126 35.9847 45.9131C35.6509 45.9139 35.3171 45.9141 34.9833 45.9142C34.7434 45.9147 34.5036 45.9151 34.2637 45.9157C33.6127 45.917 32.9618 45.9176 32.3108 45.918C31.9036 45.9183 31.4964 45.9187 31.0892 45.9191C29.9597 45.9203 28.8301 45.9213 27.7006 45.9217C27.5923 45.9217 27.5923 45.9217 27.4818 45.9217C27.4095 45.9218 27.3371 45.9218 27.2625 45.9218C27.1159 45.9218 26.9693 45.9219 26.8227 45.9219C26.75 45.922 26.6773 45.922 26.6024 45.922C25.4258 45.9224 24.2492 45.9241 23.0726 45.9264C21.8619 45.9287 20.6512 45.9299 19.4405 45.93C18.7619 45.9301 18.0832 45.9306 17.4046 45.9324C16.7655 45.9341 16.1264 45.9342 15.4873 45.9334C15.2538 45.9333 15.0204 45.9337 14.7869 45.9347C11.6864 45.9468 9.01905 45.3238 6.72611 43.1031C4.91007 41.2673 4.08554 38.8427 4.08788 36.2877C4.08759 36.1877 4.0873 36.0877 4.087 35.9847C4.08616 35.6509 4.08601 35.3171 4.08586 34.9833C4.08541 34.7434 4.08492 34.5036 4.08439 34.2637C4.08312 33.6127 4.08248 32.9618 4.08205 32.3108C4.08178 31.9036 4.08136 31.4964 4.08093 31.0892C4.07974 29.9597 4.07873 28.8301 4.0784 27.7006C4.07838 27.6284 4.07836 27.5562 4.07833 27.4818C4.07831 27.4094 4.07829 27.3371 4.07827 27.2625C4.07823 27.1159 4.07818 26.9693 4.07814 26.8227C4.07812 26.75 4.0781 26.6773 4.07807 26.6024C4.07769 25.4258 4.07599 24.2492 4.07371 23.0726C4.07139 21.8619 4.07018 20.6512 4.07006 19.4405C4.06997 18.7619 4.06942 18.0832 4.06764 17.4046C4.06597 16.7655 4.06582 16.1264 4.06668 15.4873C4.06675 15.2538 4.06633 15.0204 4.06536 14.7869C4.05329 11.7019 4.66067 9.07086 6.86039 6.76883C8.74818 4.94406 11.1185 4.0855 13.7124 4.08788ZM36.5235 9.37503C36.0656 10.0527 35.8362 10.7711 35.9845 11.586C36.2549 12.5842 36.84 13.2256 37.7076 13.7635C38.4799 14.0414 39.346 13.962 40.0818 13.6292C40.8397 13.1987 41.3255 12.5843 41.5589 11.7428C41.7082 10.9761 41.5876 10.3539 41.211 9.668C40.707 8.95906 40.1267 8.47459 39.2579 8.30082C38.1758 8.18038 37.2369 8.54591 36.5235 9.37503ZM20.8008 12.2071C20.7019 12.2398 20.6029 12.2725 20.501 12.3062C19.0021 12.8397 17.6132 13.6139 16.4063 14.6485C16.3569 14.6904 16.3075 14.7322 16.2566 14.7754C13.7079 16.9536 12.1116 19.9336 11.6211 23.2422C11.6083 23.3278 11.5954 23.4134 11.5822 23.5016C11.1784 26.7761 12.1204 30.272 14.0877 32.9132C14.3014 33.1783 14.5211 33.4359 14.7461 33.6914C14.8175 33.7746 14.8889 33.8579 14.9624 33.9436C17.3445 36.6689 20.6394 38.1895 24.2188 38.4766C27.6736 38.678 31.0819 37.5167 33.6914 35.2539C33.7724 35.1848 33.8533 35.1157 33.9367 35.0445C36.6648 32.659 38.1891 29.3657 38.4766 25.7813C38.678 22.3264 37.5167 18.9181 35.2539 16.3086C35.1848 16.2277 35.1157 16.1467 35.0445 16.0633C32.7321 13.4189 29.4289 11.8075 25.9285 11.5361C25.8073 11.5298 25.8073 11.5298 25.6836 11.5235C25.5887 11.5183 25.4938 11.5131 25.396 11.5078C23.8499 11.4658 22.2626 11.704 20.8008 12.2071Z" fill="#1E1E1E"/>
<path d="M24.6639 17.2695C25.9671 17.2289 27.2533 17.4768 28.418 18.0664C28.514 18.1145 28.6101 18.1626 28.7091 18.2122C30.5284 19.196 31.7665 20.8246 32.428 22.7654C33.0073 24.7763 32.7623 26.945 31.7879 28.7918C30.6988 30.6156 28.9976 31.9201 26.9593 32.5073C24.7558 33.034 22.6273 32.6157 20.7043 31.4518C19.0354 30.3067 17.8606 28.6054 17.4305 26.6239C17.4069 26.4969 17.4069 26.4969 17.3828 26.3672C17.3701 26.2996 17.3574 26.232 17.3443 26.1624C17.3146 25.9697 17.2972 25.7805 17.2852 25.586C17.2774 25.4623 17.2774 25.4623 17.2695 25.3361C17.2289 24.0329 17.4768 22.7468 18.0664 21.5821C18.1145 21.486 18.1626 21.39 18.2122 21.291C19.1907 19.4813 20.8353 18.193 22.7871 17.572C23.0681 17.4983 23.3473 17.4359 23.6328 17.3828C23.7342 17.3638 23.7342 17.3638 23.8377 17.3443C24.1125 17.302 24.3866 17.2869 24.6639 17.2695Z" fill="#000E12"/>
</svg>
