<svg width="512" height="512" viewBox="0 0 512 512" fill="none" xmlns="http://www.w3.org/2000/svg">
<path d="M45.8547 249.754C46.9913 249.757 46.9913 249.757 48.1508 249.76C49.0202 249.757 49.8896 249.754 50.7854 249.751C51.7413 249.758 52.6972 249.766 53.6821 249.773C54.687 249.773 55.6919 249.772 56.7273 249.772C60.0605 249.774 63.3934 249.789 66.7266 249.805C69.033 249.809 71.3394 249.811 73.6458 249.813C79.7253 249.821 85.8048 249.841 91.8842 249.863C98.0843 249.883 104.284 249.892 110.484 249.902C122.656 249.924 134.828 249.958 147 250C147.032 250.836 147.032 250.836 147.065 251.689C147.168 254.267 147.281 256.845 147.395 259.422C147.428 260.298 147.462 261.175 147.496 262.078C148.835 291.51 162.214 317.143 183.312 337.25C204.581 355.864 233.313 366.581 261.656 364.754C271.777 363.916 281.314 362.113 291 359C292.085 358.652 293.171 358.304 294.289 357.945C320.669 348.639 341.645 328.19 353.913 303.334C360.624 289.19 363.848 275.181 364.551 259.629C364.595 258.702 364.639 257.775 364.684 256.82C364.792 254.547 364.897 252.273 365 250C378.378 249.908 391.755 249.836 405.133 249.793C411.345 249.772 417.556 249.744 423.767 249.698C429.758 249.655 435.749 249.631 441.741 249.621C444.03 249.613 446.319 249.599 448.608 249.577C451.807 249.548 455.005 249.544 458.204 249.546C459.633 249.524 459.633 249.524 461.09 249.502C467.491 249.543 467.491 249.543 470.094 251.882C471.184 254.43 471.304 256.169 471.18 258.938C471.141 259.906 471.101 260.874 471.061 261.872C471 262.904 470.938 263.937 470.875 265C470.793 266.591 470.793 266.591 470.708 268.214C470.293 275.265 469.619 282.258 468.625 289.25C468.455 290.49 468.455 290.49 468.281 291.754C468.16 292.521 468.039 293.288 467.914 294.078C467.81 294.742 467.707 295.407 467.6 296.091C466.813 298.594 465.78 300.068 464 302C461.817 302.481 461.817 302.481 459.253 302.454C458.292 302.454 457.332 302.454 456.342 302.453C455.307 302.433 454.273 302.412 453.207 302.391C452.146 302.385 451.085 302.379 449.991 302.374C446.598 302.351 443.206 302.301 439.812 302.25C437.514 302.23 435.215 302.212 432.916 302.195C427.277 302.151 421.639 302.084 416 302C415.803 302.744 415.607 303.488 415.404 304.254C415.141 305.236 414.878 306.218 414.607 307.23C414.349 308.2 414.09 309.171 413.824 310.171C412.701 314.027 411.18 317.611 409.5 321.25C408.906 322.568 408.312 323.885 407.719 325.203C407.46 325.767 407.202 326.331 406.936 326.911C405.586 329.925 404.296 332.963 403 336C404.401 337.393 404.401 337.393 405.83 338.814C409.286 342.252 412.738 345.693 416.19 349.135C417.686 350.626 419.182 352.116 420.68 353.605C422.829 355.742 424.976 357.882 427.121 360.024C427.794 360.691 428.467 361.359 429.16 362.047C429.781 362.668 430.401 363.288 431.041 363.927C431.589 364.474 432.138 365.02 432.703 365.583C434.595 367.651 434.989 368.909 435.328 371.719C434.914 375.856 433.203 378.293 430.75 381.5C430.301 382.105 429.852 382.709 429.39 383.332C417.072 399.689 403.076 414.613 386.596 426.815C385.086 427.936 383.597 429.085 382.109 430.234C380.818 431.201 380.818 431.201 379.5 432.188C378.768 432.738 378.036 433.288 377.281 433.856C374.113 435.445 372.541 435.541 369 435C366.146 432.99 363.82 430.518 361.414 428C360.712 427.29 360.01 426.58 359.287 425.848C357.052 423.579 354.839 421.29 352.625 419C351.112 417.457 349.598 415.915 348.082 414.375C344.372 410.599 340.68 406.806 337 403C333.511 404.128 330.126 405.309 326.793 406.84C326.041 407.181 325.289 407.522 324.514 407.873C322.974 408.578 321.435 409.283 319.896 409.99C319.14 410.333 318.384 410.675 317.605 411.027C316.937 411.334 316.268 411.641 315.579 411.957C311.782 413.493 307.894 414.735 304 416C303.994 416.553 303.988 417.105 303.982 417.675C303.918 423.434 303.834 429.193 303.738 434.952C303.704 437.1 303.676 439.248 303.654 441.397C303.62 444.488 303.568 447.578 303.512 450.668C303.505 451.627 303.499 452.585 303.492 453.573C303.303 462.198 303.303 462.198 300 466C297.211 467 294.897 467.541 292 468C291.078 468.173 290.157 468.346 289.207 468.524C267.527 472.168 245.276 471.501 223.562 468.625C222.668 468.511 221.773 468.398 220.851 468.28C219.596 468.099 219.596 468.099 218.316 467.914C217.21 467.759 217.21 467.759 216.08 467.6C213.46 466.844 212.005 465.852 210 464C209.481 461.817 209.481 461.817 209.454 459.253C209.434 458.293 209.415 457.332 209.394 456.342C209.393 454.79 209.393 454.79 209.391 453.207C209.374 452.146 209.358 451.085 209.341 449.992C209.292 446.598 209.271 443.206 209.25 439.813C209.222 437.514 209.192 435.215 209.16 432.916C209.086 427.278 209.035 421.639 209 416C208.126 415.732 207.252 415.464 206.352 415.188C195.877 411.85 185.976 407.605 176 403C175.071 403.934 174.143 404.868 173.186 405.83C169.748 409.286 166.307 412.738 162.865 416.19C161.374 417.686 159.885 419.182 158.396 420.68C156.258 422.829 154.118 424.976 151.977 427.121C151.309 427.794 150.641 428.467 149.953 429.16C149.333 429.781 148.712 430.402 148.073 431.041C147.526 431.589 146.98 432.138 146.417 432.703C144.305 434.636 143.086 434.991 140.203 435.281C136.333 434.942 134.795 433.87 131.75 431.5C130.795 430.764 129.84 430.028 128.855 429.27C127.913 428.521 126.971 427.772 126 427C125.171 426.365 124.342 425.729 123.488 425.074C116.648 419.754 110.303 413.936 104 408C103.34 407.383 102.68 406.765 102 406.129C94.7228 399.105 88.6727 390.922 82.5 382.938C82.0665 382.377 81.6329 381.817 81.1863 381.24C77.1955 376.037 77.1955 376.037 76.5 372.349C77.2621 367.245 80.3643 364.889 84 361.414C84.7103 360.712 85.4205 360.011 86.1523 359.288C88.4212 357.052 90.71 354.839 93 352.625C94.543 351.112 96.0847 349.598 97.625 348.082C101.401 344.372 105.194 340.68 109 337C107.258 331.641 105.087 326.565 102.742 321.449C100.052 315.444 98.0086 309.262 96 303C95.4053 302.996 94.8106 302.993 94.1979 302.989C88.0172 302.947 81.8372 302.878 75.657 302.793C73.3494 302.764 71.0418 302.743 68.7341 302.729C65.4199 302.708 62.1068 302.661 58.793 302.609C57.7585 302.608 56.7241 302.607 55.6582 302.606C54.6975 302.586 53.7367 302.566 52.7468 302.546C51.4777 302.533 51.4777 302.533 50.183 302.519C48 302 48 302 46.2418 300.09C44.1368 296.547 43.8579 292.848 43.3125 288.813C43.1866 287.907 43.0606 287.002 42.9309 286.069C41.982 278.486 41.7113 270.951 41.6875 263.313C41.6821 262.22 41.6767 261.127 41.6711 260.001C41.7597 250.297 41.7597 250.297 45.8547 249.754Z" fill="#12CD86"/>
<path d="M158 250C222.68 250 287.36 250 354 250C354 268.474 352.851 282.769 345 299C344.571 299.898 344.141 300.797 343.699 301.723C331.738 325.139 310.939 342.256 286.02 350.348C261.881 357.444 235.697 355.978 213 345C212.102 344.571 211.203 344.141 210.277 343.699C186.861 331.738 169.744 310.939 161.652 286.02C157.962 273.468 158 263.838 158 250Z" fill="#12CD86"/>
<path d="M258.027 41.4414C260 42 260 42 261.591 43.9438C263.533 48.1556 263.478 51.8697 263.512 56.457C263.53 57.36 263.548 58.263 263.566 59.1933C263.62 62.0663 263.654 64.9392 263.688 67.8125C263.721 69.765 263.755 71.7175 263.791 73.6699C263.876 78.4465 263.943 83.223 264 88C264.533 87.2552 265.067 86.5105 265.616 85.7432C266.324 84.7606 267.032 83.778 267.762 82.7656C268.809 81.3082 268.809 81.3082 269.878 79.8213C280.485 65.72 296.214 57.6284 313.402 54.5C319.308 53.7347 325.241 53.7132 331.188 53.6875C332.268 53.6819 333.348 53.6764 334.461 53.6707C352.517 53.8315 352.517 53.8315 359.312 58.0625C362.289 63.2436 360.318 69.067 358.906 74.6562C354.327 90.9632 347.758 105.56 336 118C335.008 119.071 335.008 119.071 333.996 120.164C319.11 134.796 297.246 139.068 277.129 139.133C272.408 138.932 267.705 138.428 263 138C262.67 148.56 262.34 159.12 262 170C258.04 170 254.08 170 250 170C249.67 159.44 249.34 148.88 249 138C245.37 138.33 241.74 138.66 238 139C215.322 139.82 194.036 134.692 177 119C163.109 104.417 153.339 84.1006 151 64C151.211 60.8849 151.395 59.5558 153.71 57.4297C161.171 52.7711 172.304 53.6437 180.812 53.6875C181.95 53.6924 183.087 53.6973 184.258 53.7024C206.443 54.0107 224.655 61.1977 240.395 76.9609C242.594 79.3714 244.37 81.966 246.163 84.6899C246.963 85.9018 246.963 85.9018 247.779 87.1381C248.182 87.7525 248.585 88.367 249 89C249.008 88.4407 249.016 87.8814 249.025 87.3051C249.11 81.4977 249.21 75.6908 249.317 69.8838C249.356 67.7149 249.391 65.546 249.422 63.377C249.467 60.2641 249.525 57.1517 249.586 54.0391C249.597 53.0651 249.609 52.0911 249.621 51.0876C249.641 50.1868 249.661 49.286 249.681 48.3579C249.694 47.5629 249.708 46.768 249.722 45.9489C250.4 41.1982 254.001 41.6747 258.027 41.4414Z" fill="#12CD86"/>
<path d="M292.527 192.894C297.478 197.11 301.244 201.493 304.25 207.25C306.899 211.716 310.23 212.417 315.02 213.891C323.608 217.087 330.184 223.35 335 231C335.619 231.949 336.238 232.897 336.875 233.875C338 236 338 236 338 238C283.88 238 229.76 238 174 238C175.71 233.725 177.374 230.708 180 227C180.536 226.196 181.072 225.391 181.625 224.562C186.886 218.886 192.912 215.269 200.188 212.75C206.218 210.415 208.164 207.356 211.254 201.844C218.055 190.768 230.963 184.679 243 181C260.99 177.402 278.062 181.801 292.527 192.894Z" fill="#12CD86"/>
<path d="M361.746 154.871C367.869 158.02 371.798 162.394 374 169C374.693 176.703 374.901 183.529 370.566 190.16C366.645 194.766 362.076 197.723 355.961 198.273C348.116 198.496 342.139 198.227 336 193C331.221 187.738 329.84 183.2 329.75 176.187C329.711 174.383 329.711 174.383 329.672 172.543C330.272 166.059 333.274 162.265 338 158C344.521 152.63 353.818 152.356 361.746 154.871Z" fill="#12CD86"/>
<path d="M169.746 138.871C175.869 142.02 179.798 146.394 182 153C182.693 160.703 182.901 167.529 178.566 174.16C174.646 178.766 170.076 181.723 163.961 182.273C156.116 182.496 150.139 182.227 144 177C138.232 170.649 137.583 164.908 137.66 156.59C138.225 150.619 140.35 146.406 144.785 142.379C151.949 137.01 161.232 136.17 169.746 138.871Z" fill="#12CD86"/>
<path d="M127 165C127.671 166.623 128.336 168.249 129 169.875C129.371 170.78 129.742 171.685 130.125 172.617C131 175 131 175 131 177C126.732 178.508 122.46 180.005 118.187 181.5C116.972 181.929 115.758 182.359 114.506 182.801C112.761 183.41 112.761 183.41 110.98 184.031C109.907 184.408 108.833 184.785 107.727 185.174C105 186 105 186 102 186C102 203.16 102 220.32 102 238C98.0399 238 94.0799 238 89.9999 238C89.9322 230.229 89.8771 222.458 89.8445 214.686C89.8288 211.078 89.8076 207.469 89.7736 203.861C89.741 200.379 89.7231 196.898 89.7153 193.416C89.707 191.44 89.6836 189.464 89.66 187.488C89.6598 186.287 89.6596 185.086 89.6593 183.848C89.6527 182.789 89.646 181.73 89.6392 180.639C89.9999 178 89.9999 178 91.3318 176.213C93.9189 174.332 96.6872 173.524 99.7148 172.52C100.367 172.302 101.019 172.084 101.691 171.86C103.067 171.403 104.445 170.95 105.824 170.501C107.93 169.815 110.031 169.113 112.131 168.408C122.441 165 122.441 165 127 165Z" fill="#12CD86"/>
<path d="M385 170C389.948 169.951 394.896 169.914 399.844 169.89C401.528 169.88 403.212 169.866 404.896 169.849C407.313 169.825 409.731 169.814 412.148 169.805C412.904 169.794 413.659 169.784 414.437 169.773C416.293 169.773 418.148 169.878 420 170C422 172 422 172 422.241 174.746C422.234 176.498 422.234 176.498 422.227 178.286C422.227 178.93 422.228 179.574 422.228 180.237C422.227 182.369 422.211 184.501 422.195 186.633C422.192 188.11 422.189 189.587 422.187 191.063C422.179 194.953 422.159 198.843 422.137 202.732C422.117 206.701 422.108 210.669 422.098 214.637C422.076 222.425 422.042 230.212 422 238C418.04 238 414.08 238 410 238C410 219.52 410 201.04 410 182C401.75 182 393.5 182 385 182C385 178.04 385 174.08 385 170Z" fill="#12CD86"/>
</svg>
