<svg width="597" height="237" viewBox="0 0 597 237" fill="none" xmlns="http://www.w3.org/2000/svg">
<path d="M51.913 219.655V237C37.5889 237 25.3557 231.917 15.2134 221.751C5.07114 211.584 0 199.322 0 184.964C0 170.606 5.07114 158.344 15.2134 148.177C25.3557 138.011 37.5889 132.928 51.913 132.928V150.273C42.3476 150.273 34.1761 153.67 27.3986 160.464C20.6691 167.209 17.3043 175.376 17.3043 184.964C17.3043 194.552 20.6691 202.743 27.3986 209.536C34.1761 216.282 42.3476 219.655 51.913 219.655Z" fill="#1E1E1E"/>
<path d="M164.391 132.928V150.273H77.8696V176.291H147.087V193.637H77.8696V219.655H164.391V237H60.5652V132.928H164.391Z" fill="#1E1E1E"/>
<path d="M242.261 237H224.957V150.273H203.326V206.646C203.326 215.029 200.37 222.184 194.458 228.111C188.545 234.037 181.407 237 173.043 237V219.655C176.649 219.655 179.701 218.402 182.2 215.896C184.748 213.343 186.022 210.259 186.022 206.646V132.928H242.261V237Z" fill="#1E1E1E"/>
<path d="M289.848 219.655C293.453 219.655 296.505 218.402 299.005 215.896C301.552 213.343 302.826 210.259 302.826 206.646V197.973C302.826 194.359 301.552 191.3 299.005 188.794C296.505 186.241 293.453 184.964 289.848 184.964H268.217V219.655H289.848ZM320.13 206.646C320.13 215.029 317.174 222.184 311.262 228.111C305.35 234.037 298.212 237 289.848 237H250.913V132.928H268.217V167.619H289.848C298.212 167.619 305.35 170.582 311.262 176.508C317.174 182.434 320.13 189.589 320.13 197.973V206.646Z" fill="#1E1E1E"/>
<path d="M383.075 184.964L423.957 237H401.966L372.043 198.912L342.121 237H320.13L361.084 184.964L320.13 132.928H342.121L372.043 171.015L401.966 132.928H423.957L383.075 184.964Z" fill="#1E1E1E"/>
<path d="M467.217 237C452.893 237 440.66 231.917 430.518 221.751C420.375 211.584 415.304 199.322 415.304 184.964C415.304 170.606 420.375 158.344 430.518 148.177C440.66 138.011 452.893 132.928 467.217 132.928C481.542 132.928 493.775 138.011 503.917 148.177C514.059 158.344 519.13 170.606 519.13 184.964C519.13 199.322 514.059 211.584 503.917 221.751C493.775 231.917 481.542 237 467.217 237ZM467.217 219.655C476.783 219.655 484.93 216.282 491.66 209.536C498.437 202.743 501.826 194.552 501.826 184.964C501.826 175.376 498.437 167.209 491.66 160.464C484.93 153.67 476.783 150.273 467.217 150.273C457.652 150.273 449.48 153.67 442.703 160.464C435.973 167.209 432.609 175.376 432.609 184.964C432.609 194.552 435.973 202.743 442.703 209.536C449.48 216.282 457.652 219.655 467.217 219.655Z" fill="#1E1E1E"/>
<path d="M558.065 237C549.701 237 542.563 234.037 536.651 228.111C530.739 222.184 527.783 215.029 527.783 206.646H545.087C545.087 210.259 546.337 213.343 548.836 215.896C551.384 218.402 554.46 219.655 558.065 219.655H566.717C570.322 219.655 573.375 218.402 575.874 215.896C578.422 213.343 579.696 210.259 579.696 206.646C579.696 203.032 578.422 199.972 575.874 197.467C573.375 194.913 570.322 193.637 566.717 193.637H545.087V176.291H558.065C561.67 176.291 564.723 175.038 567.222 172.533C569.77 169.979 571.043 166.896 571.043 163.282C571.043 159.669 569.77 156.609 567.222 154.104C564.723 151.55 561.67 150.273 558.065 150.273C554.46 150.273 551.384 151.55 548.836 154.104C546.337 156.609 545.087 159.669 545.087 163.282H527.783C527.783 154.899 530.739 147.744 536.651 141.817C542.563 135.891 549.701 132.928 558.065 132.928C566.429 132.928 573.567 135.891 579.479 141.817C585.392 147.744 588.348 154.899 588.348 163.282C588.348 169.931 586.497 175.785 582.796 180.844C584.671 182.049 586.449 183.494 588.132 185.181C594.044 191.107 597 198.262 597 206.646C597 215.029 594.044 222.184 588.132 228.111C582.219 234.037 575.081 237 566.717 237H558.065Z" fill="#1E1E1E"/>
<path d="M297.25 26.9283V109.03H279.946V4.9575H301.937L331.859 43.045L361.781 4.9575H383.772V109.03H366.468V27.0006L342.89 56.9936L331.859 70.9422L297.25 26.9283Z" fill="#12CD86"/>
<path d="M155.736 56.4571C156.043 56.4579 156.043 56.4579 156.357 56.4587C156.592 56.4579 156.827 56.4572 157.069 56.4564C157.328 56.4584 157.586 56.4603 157.852 56.4623C158.124 56.4622 158.396 56.4622 158.676 56.4621C159.577 56.4624 160.478 56.4667 161.379 56.4709C162.003 56.4719 162.626 56.4727 163.25 56.4732C164.894 56.4753 166.538 56.4806 168.181 56.4866C169.858 56.4922 171.534 56.4946 173.21 56.4974C176.502 56.5032 179.793 56.5124 183.084 56.5238C183.092 56.7505 183.092 56.7505 183.101 56.9816C183.129 57.6803 183.16 58.3788 183.19 59.0774C183.199 59.3149 183.208 59.5524 183.218 59.7971C183.58 67.774 187.197 74.7211 192.902 80.1705C198.652 85.2151 206.421 88.1197 214.084 87.6246C216.821 87.3976 219.4 86.9087 222.018 86.0652C222.312 85.9709 222.605 85.8765 222.908 85.7793C230.04 83.257 235.712 77.715 239.029 70.9785C240.843 67.1452 241.715 63.3483 241.905 59.1335C241.917 58.8822 241.929 58.6309 241.941 58.3721C241.97 57.756 241.999 57.1399 242.027 56.5238C245.644 56.4988 249.261 56.4795 252.878 56.4677C254.557 56.462 256.237 56.4543 257.916 56.4421C259.536 56.4303 261.156 56.4238 262.776 56.421C263.395 56.419 264.014 56.4151 264.632 56.4092C265.497 56.4014 266.362 56.4003 267.227 56.4008C267.613 56.3949 267.613 56.3949 268.007 56.389C269.738 56.3999 269.738 56.3999 270.442 57.0339C270.737 57.7245 270.769 58.1958 270.735 58.9461C270.725 59.2086 270.714 59.471 270.703 59.7414C270.687 60.0212 270.67 60.3009 270.653 60.5892C270.631 61.0203 270.631 61.0203 270.608 61.4602C270.496 63.3711 270.314 65.2663 270.045 67.1614C269.999 67.4973 269.999 67.4973 269.952 67.84C269.919 68.0479 269.886 68.2558 269.852 68.47C269.824 68.65 269.796 68.83 269.768 69.0154C269.555 69.6937 269.275 70.0934 268.794 70.617C268.204 70.7473 268.204 70.7473 267.511 70.74C267.251 70.7399 266.991 70.7399 266.724 70.7398C266.444 70.7342 266.164 70.7286 265.876 70.7228C265.589 70.7213 265.302 70.7198 265.007 70.7182C264.089 70.7121 263.172 70.6985 262.254 70.6847C261.633 70.6793 261.011 70.6743 260.39 70.6699C258.865 70.6579 257.341 70.6398 255.816 70.617C255.763 70.8186 255.71 71.0202 255.655 71.2279C255.584 71.494 255.513 71.7601 255.439 72.0343C255.37 72.2973 255.3 72.5604 255.228 72.8315C254.924 73.8764 254.513 74.8477 254.058 75.8341C253.898 76.1912 253.737 76.5483 253.577 76.9055C253.507 77.0583 253.437 77.211 253.365 77.3684C253 78.1852 252.651 79.0086 252.301 79.8317C252.68 80.2092 252.68 80.2092 253.066 80.5943C254.001 81.526 254.934 82.4586 255.867 83.3915C256.272 83.7955 256.676 84.1993 257.081 84.6029C257.662 85.1821 258.243 85.7623 258.823 86.3426C259.005 86.5235 259.187 86.7045 259.374 86.891C259.542 87.0591 259.71 87.2273 259.883 87.4006C260.031 87.5486 260.179 87.6967 260.332 87.8492C260.844 88.4096 260.95 88.7507 261.042 89.5122C260.93 90.6334 260.467 91.294 259.804 92.1632C259.683 92.327 259.561 92.4909 259.436 92.6597C256.106 97.0926 252.322 101.137 247.866 104.444C247.457 104.748 247.055 105.06 246.653 105.371C246.303 105.633 246.303 105.633 245.947 105.901C245.749 106.05 245.551 106.199 245.347 106.353C244.491 106.783 244.065 106.809 243.108 106.663C242.336 106.118 241.708 105.448 241.057 104.766C240.867 104.573 240.677 104.381 240.482 104.182C239.878 103.567 239.279 102.947 238.681 102.326C238.272 101.908 237.862 101.49 237.452 101.073C236.449 100.05 235.451 99.0216 234.456 97.9901C233.512 98.2959 232.597 98.616 231.696 99.0308C231.493 99.1232 231.289 99.2156 231.08 99.3108C230.664 99.5018 230.247 99.693 229.831 99.8846C229.627 99.9774 229.423 100.07 229.212 100.166C229.031 100.249 228.85 100.332 228.664 100.418C227.638 100.834 226.586 101.171 225.533 101.513C225.532 101.663 225.53 101.813 225.529 101.967C225.511 103.528 225.488 105.089 225.462 106.65C225.453 107.232 225.446 107.814 225.44 108.396C225.431 109.234 225.416 110.072 225.401 110.909C225.4 111.169 225.398 111.429 225.396 111.696C225.345 114.034 225.345 114.034 224.452 115.064C223.698 115.335 223.072 115.482 222.289 115.607C222.04 115.653 221.79 115.7 221.534 115.748C215.672 116.736 209.656 116.555 203.785 115.776C203.543 115.745 203.301 115.714 203.051 115.682C202.712 115.633 202.712 115.633 202.366 115.583C202.067 115.541 202.067 115.541 201.762 115.498C201.053 115.293 200.66 115.024 200.118 114.522C199.977 113.931 199.977 113.931 199.97 113.236C199.965 112.976 199.959 112.715 199.954 112.447C199.953 112.026 199.953 112.026 199.953 111.597C199.948 111.31 199.944 111.022 199.939 110.726C199.926 109.806 199.92 108.887 199.915 107.967C199.907 107.344 199.899 106.721 199.891 106.098C199.87 104.57 199.857 103.042 199.847 101.513C199.611 101.441 199.375 101.368 199.131 101.293C196.299 100.389 193.622 99.2382 190.925 97.9901C190.674 98.2432 190.422 98.4963 190.164 98.7571C189.234 99.6937 188.304 100.629 187.373 101.565C186.97 101.97 186.567 102.376 186.165 102.782C185.587 103.364 185.008 103.946 184.429 104.527C184.249 104.71 184.068 104.892 183.882 105.08C183.714 105.248 183.547 105.416 183.374 105.59C183.226 105.738 183.078 105.887 182.926 106.04C182.355 106.564 182.025 106.66 181.246 106.739C180.199 106.647 179.783 106.357 178.96 105.714C178.702 105.515 178.444 105.315 178.178 105.11C177.923 104.907 177.668 104.704 177.406 104.495C177.182 104.322 176.957 104.15 176.727 103.973C174.877 102.531 173.161 100.954 171.457 99.3452C171.279 99.1779 171.1 99.0105 170.916 98.8381C168.949 96.9343 167.313 94.7168 165.644 92.5528C165.527 92.4009 165.41 92.2491 165.289 92.0926C164.21 90.6825 164.21 90.6825 164.022 89.6831C164.228 88.2996 165.067 87.6612 166.05 86.7194C166.242 86.5292 166.434 86.339 166.632 86.1431C167.245 85.5373 167.864 84.9374 168.483 84.3374C168.9 83.9274 169.317 83.517 169.734 83.1062C170.755 82.1007 171.78 81.0999 172.809 80.1027C172.338 78.6503 171.751 77.2745 171.117 75.8881C170.39 74.2605 169.837 72.5851 169.294 70.888C169.133 70.887 168.973 70.886 168.807 70.885C167.136 70.8737 165.465 70.8549 163.794 70.8317C163.17 70.8241 162.546 70.8183 161.922 70.8145C161.026 70.8087 160.13 70.7961 159.234 70.7821C158.954 70.7818 158.675 70.7814 158.387 70.7811C158.127 70.7758 157.867 70.7704 157.599 70.7649C157.256 70.7613 157.256 70.7613 156.906 70.7576C156.316 70.617 156.316 70.617 155.841 70.0993C155.271 69.1392 155.196 68.1366 155.049 67.0429C155.014 66.7975 154.98 66.5521 154.945 66.2993C154.689 64.2441 154.616 62.2018 154.609 60.1318C154.608 59.8357 154.606 59.5395 154.605 59.2344C154.629 56.6044 154.629 56.6044 155.736 56.4571Z" fill="#12CD86"/>
<path d="M186.058 56.5238C203.546 56.5238 221.034 56.5238 239.052 56.5238C239.052 61.5306 238.742 65.405 236.619 69.8039C236.503 70.0474 236.387 70.2909 236.267 70.5418C233.033 76.8881 227.409 81.5273 220.672 83.7202C214.145 85.6435 207.065 85.2462 200.929 82.2709C200.686 82.1545 200.443 82.0382 200.193 81.9183C193.861 78.6767 189.233 73.0396 187.045 66.2859C186.048 62.8842 186.058 60.2743 186.058 56.5238Z" fill="#12CD86"/>
<path d="M213.103 0C213.637 0.151391 213.637 0.151391 214.067 0.678215C214.592 1.81968 214.577 2.82629 214.586 4.06956C214.591 4.31428 214.596 4.559 214.601 4.81114C214.615 5.58979 214.625 6.3684 214.634 7.14713C214.643 7.6763 214.652 8.20546 214.662 8.73462C214.685 10.0292 214.703 11.3237 214.718 12.6184C214.862 12.4165 215.006 12.2147 215.155 12.0067C215.346 11.7404 215.538 11.4741 215.735 11.1997C216.018 10.8047 216.018 10.8047 216.307 10.4018C219.175 6.58003 223.428 4.38701 228.076 3.53916C229.672 3.33175 231.276 3.32592 232.884 3.31895C233.176 3.31745 233.469 3.31594 233.77 3.31439C238.651 3.35798 238.651 3.35798 240.489 4.50467C241.294 5.90887 240.761 7.48713 240.379 9.00193C239.141 13.4215 237.365 17.3774 234.186 20.749C233.917 21.0393 233.917 21.0393 233.644 21.3355C229.619 25.3011 223.707 26.459 218.268 26.4765C216.992 26.4222 215.72 26.2854 214.448 26.1694C214.359 29.0314 214.269 31.8934 214.177 34.8421C213.107 34.8421 212.036 34.8421 210.933 34.8421C210.844 31.9801 210.754 29.1182 210.662 26.1694C209.681 26.2589 208.699 26.3483 207.688 26.4405C201.557 26.6626 195.801 25.273 191.195 21.02C187.439 17.0677 184.797 11.5616 184.165 6.11386C184.222 5.26961 184.272 4.90938 184.898 4.33317C186.915 3.07058 189.925 3.30709 192.226 3.31895C192.533 3.32029 192.841 3.32162 193.158 3.32299C199.156 3.40656 204.08 5.35438 208.336 9.62655C208.93 10.2798 209.41 10.983 209.895 11.7213C210.112 12.0497 210.112 12.0497 210.332 12.3848C210.441 12.5513 210.55 12.7178 210.662 12.8894C210.665 12.7378 210.667 12.5862 210.669 12.43C210.692 10.8561 210.719 9.28231 210.748 7.70849C210.759 7.12068 210.768 6.53285 210.776 5.945C210.789 5.10135 210.804 4.25782 210.821 3.41423C210.824 3.15026 210.827 2.88629 210.83 2.61431C210.836 2.37018 210.841 2.12605 210.847 1.87452C210.85 1.65906 210.854 1.44361 210.857 1.22162C211.041 -0.0659099 212.015 0.0632245 213.103 0Z" fill="#12CD86"/>
<path d="M222.431 41.047C223.77 42.1896 224.788 43.3775 225.601 44.9377C226.317 46.1482 227.218 46.338 228.513 46.7374C230.835 47.6038 232.613 49.3012 233.915 51.3744C234.082 51.6316 234.25 51.8887 234.422 52.1536C234.726 52.7295 234.726 52.7295 234.726 53.2716C220.093 53.2716 205.46 53.2716 190.384 53.2716C190.846 52.1131 191.296 51.2952 192.006 50.2903C192.151 50.0723 192.296 49.8543 192.446 49.6297C193.868 48.0914 195.497 47.1111 197.464 46.4283C199.095 45.7954 199.621 44.9664 200.457 43.4725C202.295 40.4707 205.786 38.8204 209.04 37.8234C213.904 36.8482 218.52 38.0403 222.431 41.047Z" fill="#12CD86"/>
<path d="M241.147 30.7419C242.802 31.5954 243.865 32.7808 244.46 34.5711C244.647 36.6587 244.704 38.5087 243.532 40.306C242.471 41.5541 241.236 42.3557 239.583 42.5048C237.461 42.5651 235.845 42.4922 234.186 41.0756C232.893 39.6494 232.52 38.4196 232.496 36.5191C232.485 36.0301 232.485 36.0301 232.475 35.5313C232.637 33.7739 233.448 32.7458 234.726 31.5899C236.49 30.1344 239.003 30.0603 241.147 30.7419Z" fill="#12CD86"/>
<path d="M189.234 26.4055C190.889 27.259 191.952 28.4444 192.547 30.2348C192.734 32.3223 192.791 34.1724 191.619 35.9696C190.558 37.2178 189.323 38.0194 187.67 38.1685C185.548 38.2287 183.932 38.1558 182.272 36.7393C180.713 35.0179 180.537 33.4621 180.558 31.2077C180.711 29.5894 181.286 28.4477 182.485 27.3562C184.422 25.901 186.932 25.6735 189.234 26.4055Z" fill="#12CD86"/>
<path d="M177.676 33.487C177.857 33.927 178.037 34.3675 178.217 34.8083C178.317 35.0535 178.418 35.2988 178.521 35.5514C178.758 36.1972 178.758 36.1972 178.758 36.7393C177.603 37.1479 176.448 37.5536 175.293 37.9589C174.965 38.0752 174.636 38.1916 174.298 38.3114C173.826 38.4765 173.826 38.4765 173.345 38.6449C173.054 38.7471 172.764 38.8493 172.465 38.9546C171.728 39.1785 171.728 39.1785 170.916 39.1785C170.916 43.8292 170.916 48.4799 170.916 53.2716C169.846 53.2716 168.775 53.2716 167.672 53.2716C167.654 51.1654 167.639 49.0593 167.63 46.9531C167.626 45.9751 167.62 44.9972 167.611 44.0192C167.602 43.0756 167.597 42.1319 167.595 41.1882C167.593 40.6527 167.586 40.1172 167.58 39.5817C167.58 39.2562 167.58 38.9307 167.58 38.5953C167.578 38.3083 167.576 38.0212 167.574 37.7254C167.672 37.0103 167.672 37.0103 168.032 36.526C168.732 36.0161 169.48 35.7971 170.299 35.525C170.475 35.466 170.651 35.407 170.833 35.3462C171.205 35.2223 171.578 35.0996 171.95 34.978C172.52 34.792 173.088 34.6017 173.656 34.4107C176.443 33.487 176.443 33.487 177.676 33.487Z" fill="#12CD86"/>
<path d="M247.434 34.8421C248.772 34.8287 250.11 34.8189 251.448 34.8124C251.903 34.8096 252.358 34.8059 252.814 34.8012C253.467 34.7947 254.121 34.7916 254.775 34.7892C254.979 34.7864 255.183 34.7836 255.393 34.7807C255.895 34.7806 256.397 34.809 256.897 34.8421C257.438 35.3842 257.438 35.3842 257.503 36.1284C257.501 36.6033 257.501 36.6033 257.5 37.0877C257.5 37.2623 257.5 37.4368 257.5 37.6166C257.499 38.1945 257.495 38.7722 257.491 39.35C257.49 39.7502 257.489 40.1505 257.489 40.5508C257.487 41.605 257.481 42.6591 257.475 43.7133C257.47 44.7887 257.467 45.8642 257.465 46.9396C257.459 49.0503 257.45 51.1609 257.438 53.2716C256.368 53.2716 255.297 53.2716 254.194 53.2716C254.194 48.2631 254.194 43.2546 254.194 38.0944C251.963 38.0944 249.732 38.0944 247.434 38.0944C247.434 37.0211 247.434 35.9479 247.434 34.8421Z" fill="#12CD86"/>
<path d="M69.2174 109.03H51.913V22.3029H17.3043V109.03H0V4.9575H69.2174V109.03Z" fill="#12CD86"/>
<path d="M116.804 4.9575C125.168 4.9575 132.306 7.92067 138.218 13.847C144.131 19.7733 147.087 26.9283 147.087 35.3119V43.9846C147.087 52.3682 144.131 59.5231 138.218 65.4495C132.306 71.3758 125.168 74.339 116.804 74.339H95.1739V109.03H77.8696V4.9575H116.804ZM129.783 35.3119C129.783 31.6983 128.509 28.6388 125.961 26.1333C123.462 23.5797 120.409 22.3029 116.804 22.3029H95.1739V56.9936H116.804C120.409 56.9936 123.462 55.7409 125.961 53.2355C128.509 50.6818 129.783 47.5982 129.783 43.9846V35.3119Z" fill="#12CD86"/>
</svg>
