<svg width="30" height="30" viewBox="0 0 30 30" fill="none" xmlns="http://www.w3.org/2000/svg">
<g clip-path="url(#clip0_24_127)">
<path d="M14.9414 0.527344C14.9801 0.527344 15.0188 0.527344 15.0586 0.527344C15.0784 0.578639 15.0982 0.629934 15.1186 0.682783C15.6467 2.0486 16.1864 3.40961 16.731 4.76889C16.8897 5.16518 17.0484 5.56149 17.2071 5.95779C17.2248 6.00186 17.2424 6.04592 17.2606 6.09132C17.6326 7.02037 18.0038 7.94972 18.3736 8.87962C18.4388 9.04333 18.504 9.20701 18.5693 9.37064C18.6594 9.59631 18.7491 9.8221 18.8388 10.0479C18.8656 10.115 18.8925 10.1821 18.9201 10.2513C18.9563 10.3425 18.9563 10.3425 18.9931 10.4356C19.0142 10.4885 19.0353 10.5415 19.057 10.596C19.1016 10.7227 19.1016 10.7227 19.1016 10.8398C19.1457 10.842 19.1899 10.8441 19.2354 10.8464C21.1454 10.9411 23.0531 11.0708 24.9612 11.197C25.3316 11.2215 25.7021 11.2459 26.0726 11.2702C26.5217 11.2997 26.9708 11.3293 27.4199 11.3589C27.5473 11.3673 27.6748 11.3757 27.8022 11.3841C28.0396 11.3997 28.2771 11.4154 28.5146 11.4312C28.5837 11.4357 28.6528 11.4402 28.724 11.4449C29.1498 11.4732 29.5749 11.5061 30 11.543C29.8877 11.7935 29.7136 11.9383 29.5056 12.1106C29.4686 12.1418 29.4317 12.1729 29.3936 12.205C29.1274 12.4286 28.8579 12.6479 28.588 12.8671C28.346 13.0673 28.1095 13.2737 27.8726 13.48C27.5412 13.7684 27.2064 14.0526 26.8704 14.3356C26.7135 14.4678 26.5568 14.6002 26.4001 14.7327C26.369 14.759 26.3378 14.7854 26.3056 14.8125C26.104 14.9832 25.9033 15.1549 25.7031 15.3272C25.4302 15.562 25.1565 15.795 24.8767 16.0217C24.5776 16.2645 24.2872 16.5165 23.9969 16.7697C23.7839 16.955 23.569 17.1368 23.3496 17.3145C22.9804 17.6134 22.6231 17.9258 22.2655 18.2384C22.156 18.3333 22.0461 18.4277 21.936 18.522C21.899 18.5537 21.862 18.5854 21.8239 18.6181C21.7956 18.6423 21.7674 18.6665 21.7383 18.6914C21.8888 19.3844 22.0507 20.0733 22.2256 20.7605C22.2498 20.8562 22.274 20.952 22.2983 21.0478C22.3629 21.3032 22.4278 21.5587 22.4927 21.8141C22.5469 22.0276 22.601 22.2412 22.6551 22.4548C22.931 23.5443 23.2086 24.6334 23.49 25.7214C23.5293 25.8735 23.5686 26.0256 23.6079 26.1776C23.719 26.6079 23.8303 27.0381 23.9424 27.4681C23.988 27.6431 24.0333 27.8183 24.0786 27.9934C24.0994 28.0739 24.1204 28.1542 24.1415 28.2346C24.25 28.6478 24.3419 29.0462 24.375 29.4727C23.897 29.228 23.4512 28.9448 23.0024 28.6512C22.7354 28.4766 22.466 28.3059 22.196 28.136C21.7888 27.8795 21.3824 27.6219 20.9766 27.3633C20.4369 27.0195 19.8963 26.6773 19.3551 26.336C19.124 26.1902 18.8931 26.0443 18.6621 25.8984C18.5693 25.8398 18.4766 25.7812 18.3838 25.7227C18.1982 25.6055 18.0127 25.4883 17.8271 25.3711C17.7812 25.3421 17.7353 25.3131 17.6879 25.2832C17.5954 25.2247 17.5028 25.1663 17.4103 25.1078C17.1748 24.959 16.9392 24.8103 16.7036 24.6618C16.6323 24.6168 16.6323 24.6168 16.5596 24.571C16.4657 24.5117 16.3717 24.4527 16.2776 24.3937C16.0613 24.2579 15.8472 24.1202 15.637 23.9751C15.5997 23.9498 15.5624 23.9245 15.524 23.8984C15.4246 23.8306 15.326 23.7616 15.2275 23.6925C15.0664 23.5939 15.0664 23.5939 14.9197 23.656C14.7644 23.7311 14.6207 23.8134 14.4747 23.9053C14.4188 23.9404 14.363 23.9755 14.3054 24.0116C14.2458 24.0493 14.1862 24.0871 14.1248 24.126C14.0314 24.1847 14.0314 24.1847 13.9362 24.2446C13.4155 24.5727 12.8963 24.903 12.3775 25.234C11.9503 25.5064 11.5218 25.7766 11.0934 26.0468C10.8623 26.1926 10.6314 26.3385 10.4004 26.4844C10.3076 26.543 10.2148 26.6016 10.1221 26.6602C10.0761 26.6892 10.0302 26.7182 9.98291 26.748C8.45215 27.7148 8.45215 27.7148 8.31292 27.8028C8.22038 27.8612 8.12784 27.9197 8.03531 27.9781C7.79979 28.1269 7.56423 28.2756 7.32857 28.4241C7.28105 28.4541 7.23354 28.4841 7.18459 28.515C7.09073 28.5742 6.99686 28.6333 6.90298 28.6925C6.68632 28.8291 6.47032 28.9667 6.2558 29.1067C6.21772 29.1315 6.17963 29.1563 6.1404 29.1818C6.06974 29.228 5.99922 29.2743 5.92888 29.3209C5.69651 29.4727 5.69651 29.4727 5.56641 29.4727C5.7559 28.562 5.99097 27.6629 6.22409 26.7627C6.3476 26.2857 6.47036 25.8085 6.59317 25.3313C6.606 25.2814 6.61884 25.2316 6.63206 25.1802C6.94126 23.979 7.24632 22.7768 7.55054 21.5744C7.59144 21.4128 7.63236 21.2513 7.6733 21.0897C7.73793 20.8346 7.80248 20.5795 7.86696 20.3244C7.89067 20.2307 7.9144 20.1369 7.93816 20.0432C8.05199 19.5938 8.1648 19.1448 8.26172 18.6914C7.91967 18.3775 7.57087 18.0761 7.21001 17.7841C7.00075 17.6116 6.79616 17.4342 6.5918 17.2559C6.34089 17.0371 6.08887 16.8208 5.83008 16.6113C5.5351 16.3724 5.24853 16.1246 4.96229 15.8754C4.69388 15.6418 4.42339 15.4108 4.15129 15.1816C3.91618 14.9833 3.68279 14.7831 3.44971 14.5825C3.21175 14.3778 2.97216 14.1759 2.72827 13.9783C2.43231 13.7379 2.14446 13.4891 1.85696 13.2388C1.61782 13.0307 1.37745 12.8242 1.13525 12.6196C1.10485 12.5939 1.07444 12.5681 1.04311 12.5416C0.877858 12.4019 0.711811 12.2633 0.544968 12.1255C0.509553 12.096 0.474138 12.0666 0.437651 12.0362C0.369358 11.9795 0.300835 11.923 0.232058 11.8668C0.152501 11.8005 0.0759234 11.7306 0 11.6602C0 11.6215 0 11.5828 0 11.543C5.77143 11.1481 5.77143 11.1481 8.50099 10.9702C8.64609 10.9607 8.79119 10.9512 8.93628 10.9417C9.16201 10.9269 9.38775 10.9122 9.6135 10.8976C9.69496 10.8923 9.77641 10.887 9.85787 10.8816C9.9681 10.8744 10.0783 10.8673 10.1886 10.8602C10.2803 10.8543 10.2803 10.8543 10.3739 10.8482C10.5491 10.8397 10.7231 10.8384 10.8984 10.8398C10.906 10.7972 10.9135 10.7546 10.9213 10.7106C10.9553 10.5548 11.001 10.4184 11.06 10.2705C11.0817 10.2159 11.1033 10.1613 11.1257 10.105C11.1498 10.0449 11.1739 9.98484 11.1987 9.92294C11.2247 9.85777 11.2506 9.7926 11.2773 9.72545C11.3349 9.58075 11.3926 9.43609 11.4504 9.29148C11.5446 9.05614 11.6384 8.82066 11.7322 8.58516C11.8569 8.27198 11.9817 7.95885 12.1067 7.64576C12.4215 6.85671 12.7356 6.06737 13.0497 5.27802C13.1592 5.00277 13.2687 4.72753 13.3783 4.4523C13.4054 4.38402 13.4326 4.31574 13.4606 4.24539C13.7532 3.51 14.046 2.77466 14.3388 2.03934C14.3628 1.97902 14.3868 1.9187 14.4115 1.85655C14.4789 1.68737 14.5463 1.51818 14.6136 1.349C14.6334 1.29941 14.6531 1.24982 14.6735 1.19873C14.7626 0.97487 14.8518 0.751033 14.9414 0.527344Z" fill="#12CD86"/>
</g>
<defs>
<clipPath id="clip0_24_127">
<rect width="30" height="30" fill="white"/>
</clipPath>
</defs>
</svg>
