<svg width="50" height="50" viewBox="0 0 50 50" fill="none" xmlns="http://www.w3.org/2000/svg">
<g clip-path="url(#clip0_10_2)">
<path d="M28.7903 11.5906C29.3695 12.4677 29.4111 13.3596 29.4068 14.386C29.4066 14.4985 29.4064 14.611 29.4062 14.7269C29.4012 15.7998 29.3737 16.8719 29.3457 17.9444C29.003 21.2232 29.003 21.2232 29.8828 24.2188C30.1766 24.425 30.343 24.5236 30.7026 24.4896C32.9003 23.8372 34.6098 20.0745 35.6143 18.2558C36.3723 16.8535 37.1138 15.4237 37.7072 13.9427C37.7411 13.8586 37.7751 13.7745 37.8101 13.6878C37.8739 13.5278 37.9363 13.3672 37.9968 13.2058C38.2006 12.6924 38.4056 12.4195 38.8672 12.1094C39.2779 11.9791 39.695 11.9931 40.1219 11.9886C40.2092 11.9873 40.2964 11.986 40.3863 11.9847C40.6748 11.9806 40.9633 11.9773 41.2518 11.974C41.4527 11.9715 41.6537 11.9689 41.8546 11.9664C42.2762 11.9612 42.6977 11.9565 43.1193 11.9519C43.658 11.946 44.1967 11.9388 44.7355 11.9312C45.1508 11.9255 45.5661 11.9208 45.9814 11.9164C46.1799 11.9141 46.3784 11.9115 46.5769 11.9085C46.8555 11.9045 47.134 11.9017 47.4126 11.8993C47.4937 11.8979 47.5749 11.8964 47.6585 11.8949C48.4207 11.8908 49.1445 11.9998 49.8047 12.4024C50.1273 12.8862 50.0583 13.4 50 13.9649C49.2738 16.7481 47.0237 19.2905 45.3168 21.5163C42.9782 24.1244 42.9782 24.1244 41.9922 27.2461C42.2782 28.2086 43.1686 28.9165 43.8538 29.6082C43.8997 29.6545 43.9455 29.7009 43.9928 29.7486C44.255 30.0096 44.5249 30.257 44.8052 30.4985C45.2567 30.8901 45.6785 31.3086 46.0999 31.7322C46.1745 31.8064 46.249 31.8806 46.3259 31.9571C46.7896 32.4216 47.2313 32.8984 47.6563 33.3985C47.7084 33.4591 47.7605 33.5198 47.8141 33.5823C48.4026 34.2728 48.9625 34.9708 49.4324 35.7483C49.4678 35.8063 49.5031 35.8644 49.5395 35.9242C49.9424 36.6171 50.0822 37.2951 50 38.086C49.8413 38.5322 49.5302 38.7195 49.1436 38.9633C48.6547 39.186 48.1128 39.1785 47.5837 39.1923C47.5103 39.1945 47.4368 39.1968 47.3612 39.1991C47.1195 39.2063 46.8779 39.2128 46.6362 39.2193C46.4669 39.224 46.2976 39.2287 46.1283 39.2334C45.7735 39.2432 45.4187 39.2525 45.0639 39.2617C44.6121 39.2735 44.1603 39.2867 43.7086 39.3002C43.3587 39.3104 43.0088 39.3196 42.6589 39.3286C42.4925 39.333 42.3261 39.3378 42.1598 39.343C39.8753 39.4131 38.2642 38.903 36.5605 37.3299C36.0291 36.8255 35.5218 36.3105 35.0437 35.7552C34.7667 35.4353 34.4819 35.1226 34.1976 34.8091C34.0098 34.5988 33.8292 34.3841 33.6487 34.1675C33.0644 33.4975 32.2973 32.7835 31.3904 32.6721C30.9986 32.722 30.853 32.8435 30.5664 33.1055C30.502 33.1055 30.4375 33.1055 30.3711 33.1055C30.3286 33.1912 30.3286 33.1912 30.2853 33.2787C30.219 33.4102 30.1515 33.5412 30.0816 33.6708C29.5132 34.7437 29.381 35.8379 29.3526 37.0352C29.3295 37.5977 29.2564 38.1814 28.8761 38.626C28.226 39.2075 27.5244 39.1902 26.701 39.1895C26.5358 39.1902 26.5358 39.1902 26.3673 39.1908C26.1341 39.1914 25.9009 39.1914 25.6677 39.191C25.3162 39.1907 24.9649 39.193 24.6134 39.1955C23.3755 39.1989 22.2029 39.1517 20.9961 38.8672C20.9123 38.8483 20.8285 38.8294 20.7422 38.81C18.2683 38.2113 16.0009 36.8498 14.0249 35.2805C13.8895 35.1738 13.7513 35.0705 13.6128 34.9678C12.3772 34.0365 11.2882 32.8677 10.3822 31.6183C10.2372 31.4228 10.0871 31.232 9.93578 31.0414C9.16684 30.0719 8.45317 29.0766 7.76422 28.0491C7.62861 27.8489 7.49047 27.6509 7.35056 27.4536C4.85775 23.9306 2.89921 19.9932 1.06099 16.0967C0.979795 15.9248 0.89816 15.7531 0.816507 15.5813C0.674095 15.2796 0.534815 14.9766 0.396748 14.6729C0.355819 14.5864 0.314891 14.5 0.272722 14.411C0.00975687 13.8182 -0.113476 13.2463 1.90362e-05 12.5977C0.195151 12.3109 0.43893 12.1559 0.772665 12.0504C0.995633 12.0081 1.20471 11.9961 1.43163 11.9917C1.52195 11.9897 1.61227 11.9878 1.70533 11.9858C1.80297 11.9842 1.90061 11.9825 2.00121 11.9808C2.10338 11.9788 2.20556 11.9767 2.31083 11.9746C2.64325 11.9682 2.97568 11.9624 3.30812 11.9568C3.47685 11.9538 3.47685 11.9538 3.64898 11.9508C4.31868 11.9392 4.98839 11.9286 5.65811 11.9187C5.92747 11.9145 6.19682 11.91 6.46617 11.9052C6.87222 11.898 7.27825 11.8935 7.68435 11.8897C7.79807 11.8876 7.91179 11.8855 8.02896 11.8833C8.89732 11.8797 9.55756 12.0437 10.2539 12.5977C10.6144 13.0746 10.8263 13.5856 11.0535 14.1358C12.0374 16.4543 13.2104 18.7092 14.4531 20.8985C14.4928 20.9689 14.5325 21.0394 14.5735 21.1121C15.0482 21.9501 15.5673 22.7166 16.211 23.4375C16.268 23.5037 16.325 23.5699 16.3838 23.6382C16.8887 24.1892 17.4881 24.578 18.2434 24.6399C18.7024 24.4509 18.8476 24.1753 19.043 23.7305C20.0409 21.0995 19.9826 17.049 19.0735 14.386C18.8141 13.8289 18.4555 13.438 17.8778 13.2053C17.4259 13.0451 16.9673 12.915 16.5039 12.793C16.5801 12.311 16.7178 12.141 17.0899 11.8164C17.1454 11.7667 17.2009 11.717 17.2581 11.6657C18.5053 10.6286 20.5218 10.7135 22.0703 10.6751C22.1741 10.6722 22.1741 10.6722 22.2799 10.6694C27.6767 10.5265 27.6767 10.5265 28.7903 11.5906Z" fill="#1E1E1E"/>
</g>
<defs>
<clipPath id="clip0_10_2">
<rect width="50" height="50" fill="white"/>
</clipPath>
</defs>
</svg>
