<svg width="50" height="50" viewBox="0 0 50 50" fill="none" xmlns="http://www.w3.org/2000/svg">
<g clip-path="url(#clip0_10_16)">
<path d="M49.2187 4.49223C49.7846 5.04059 50.0206 5.66661 50.0401 6.45342C50.0408 7.68035 49.8164 8.82081 49.5518 10.0151C49.5036 10.2392 49.4556 10.4633 49.4078 10.6874C49.2784 11.2918 49.1467 11.8956 49.0146 12.4994C48.8884 13.0777 48.7641 13.6564 48.6398 14.2351C48.4095 15.3069 48.1781 16.3786 47.9457 17.45C47.6104 18.9962 47.2787 20.5432 46.949 22.0906C46.9245 22.2056 46.9 22.3207 46.8747 22.4393C46.7758 22.9032 46.677 23.3672 46.5781 23.8312C46.4053 24.6419 46.232 25.4526 46.0584 26.2632C46.0336 26.3792 46.0087 26.4952 45.9831 26.6147C45.9325 26.8509 45.882 27.0871 45.8314 27.3232C45.3896 29.386 44.9502 31.4492 44.5128 33.5129C44.402 34.0354 44.2911 34.5578 44.1801 35.0802C44.1567 35.1901 44.1567 35.1901 44.1329 35.3022C44.0548 35.6698 43.9767 36.0373 43.8985 36.4049C43.7307 37.1943 43.5634 37.9837 43.3967 38.7733C43.283 39.3117 43.1687 39.8499 43.054 40.388C42.9877 40.6992 42.9217 41.0105 42.8562 41.322C42.7847 41.6622 42.7122 42.0021 42.6394 42.3421C42.6191 42.4399 42.5987 42.5378 42.5778 42.6386C42.3611 43.6413 42.0804 44.8823 41.2304 45.5479C40.6035 45.9224 40.0082 45.982 39.2979 45.8523C38.2998 45.5799 37.5331 44.9458 36.7187 44.336C36.5665 44.2238 36.4142 44.1118 36.2617 43.9999C35.9499 43.7709 35.6385 43.5412 35.3275 43.311C34.8822 42.9819 34.4338 42.6574 33.9844 42.334C32.9889 41.6172 32.0025 40.8883 31.0161 40.1592C30.7828 39.9868 30.5495 39.8146 30.3162 39.6424C30.2401 39.5862 30.164 39.5301 30.0856 39.4722C29.5446 39.0736 29.0002 38.6797 28.4546 38.2874C27.8795 37.8739 27.31 37.4557 26.7578 37.0118C26.4011 37.2099 26.1283 37.4237 25.8434 37.7152C25.7648 37.7949 25.6862 37.8746 25.6052 37.9567C25.5243 38.0396 25.4434 38.1226 25.3601 38.208C24.8599 38.7189 24.3592 39.2169 23.8162 39.6823C23.5127 39.9495 23.232 40.2385 22.9492 40.5274C22.5342 40.9472 22.1175 41.3544 21.6648 41.734C21.4487 41.9264 21.2554 42.1355 21.0571 42.3462C20.606 42.7997 20.0782 43.2465 19.4104 43.2692C19.332 43.2683 19.2535 43.2674 19.1727 43.2665C19.0539 43.2655 19.0539 43.2655 18.9328 43.2644C18.8725 43.2635 18.8122 43.2627 18.75 43.2618C18.8374 41.2529 18.9439 39.2456 19.0725 37.239C19.1078 36.6861 19.1413 36.1333 19.1709 35.5802C19.1999 35.0385 19.2334 34.4974 19.27 33.9562C19.2831 33.7518 19.2946 33.5473 19.3044 33.3426C19.3919 31.5558 19.3919 31.5558 20.0041 30.9995C20.1698 30.8845 20.3377 30.7726 20.5078 30.6641C20.6729 30.5202 20.8359 30.374 20.9961 30.2246C21.9727 29.3457 21.9727 29.3457 22.216 29.1268C22.3814 28.9779 22.5467 28.8288 22.7119 28.6797C23.0777 28.3497 23.4439 28.0206 23.8159 27.6978C24.2034 27.3605 24.5809 27.0127 24.9588 26.6648C25.2895 26.3608 25.6249 26.0633 25.9644 25.7691C26.2322 25.5327 26.495 25.2909 26.7578 25.0489C27.1444 24.693 27.5343 24.3419 27.9312 23.9975C28.3256 23.6529 28.7128 23.3002 29.1016 22.9493C29.2643 22.8027 29.4271 22.6563 29.5898 22.5098C29.6704 22.4373 29.751 22.3648 29.834 22.2901C30.5664 21.6309 30.5664 21.6309 30.8098 21.4119C30.9752 21.263 31.1405 21.114 31.3057 20.9649C31.6714 20.6349 32.0376 20.3058 32.4097 19.983C32.7971 19.6457 33.1747 19.2979 33.5525 18.95C33.8832 18.646 34.2186 18.3484 34.5581 18.0542C34.826 17.8179 35.0887 17.576 35.3516 17.334C35.7381 16.9781 36.1281 16.6271 36.525 16.2827C36.9193 15.938 37.3066 15.5854 37.6953 15.2344C37.858 15.0879 38.0208 14.9414 38.1836 14.795C38.2642 14.7225 38.3447 14.6499 38.4277 14.5752C38.6719 14.3555 38.916 14.1358 39.1602 13.9161C39.2401 13.844 39.32 13.772 39.4024 13.6979C39.5713 13.546 39.7404 13.3944 39.9097 13.2431C40.1491 13.029 40.3874 12.8138 40.625 12.5977C40.681 12.5471 40.737 12.4965 40.7948 12.4443C40.9433 12.3086 40.9433 12.3086 41.1133 12.1094C41.1133 12.0127 41.1133 11.9161 41.1133 11.8164C40.5145 11.6274 40.0911 11.8571 39.5508 12.1094C39.2506 12.2752 38.9644 12.4582 38.678 12.6465C38.5147 12.7517 38.3514 12.8569 38.1882 12.962C38.065 13.0419 38.065 13.0419 37.9393 13.1235C37.5608 13.3683 37.1795 13.6086 36.7981 13.8489C36.7225 13.8967 36.647 13.9444 36.5691 13.9936C35.6471 14.5758 34.7219 15.1528 33.7969 15.7302C33.3059 16.0367 32.8151 16.3436 32.3242 16.6504C32.1289 16.7725 31.9336 16.8946 31.7383 17.0166C31.6416 17.0771 31.5449 17.1375 31.4453 17.1997C23.5352 22.1436 23.5352 22.1436 23.2421 22.3268C23.0471 22.4486 22.8522 22.5704 22.6573 22.6923C22.163 23.0012 21.6687 23.3101 21.1742 23.6187C20.2835 24.1749 19.3932 24.7315 18.5059 25.293C18.0093 25.6072 17.5122 25.9206 17.0143 26.2326C16.9168 26.2938 16.8193 26.3551 16.7189 26.4182C16.5187 26.5429 16.3175 26.6661 16.1155 26.788C15.5473 27.133 15.0324 27.4899 14.5401 27.9378C13.5249 28.6486 13.5249 28.6486 12.8568 28.5796C12.4797 28.4814 12.1146 28.3608 11.7477 28.2307C11.6074 28.1841 11.4668 28.1379 11.3262 28.0921C11.0262 27.9939 10.727 27.8939 10.428 27.7926C9.71852 27.5539 9.00214 27.3372 8.28657 27.1176C7.87802 26.9918 7.46999 26.8643 7.06195 26.7369C6.8978 26.6856 6.73365 26.6344 6.5695 26.5832C6.48789 26.5577 6.40628 26.5322 6.32219 26.506C5.98548 26.401 5.64872 26.2961 5.31195 26.1913C4.98241 26.0886 4.65289 25.9859 4.32339 25.8831C4.16874 25.8349 4.01407 25.7867 3.85939 25.7385C3.38635 25.5912 2.91367 25.4428 2.4414 25.293C2.27143 25.2393 2.27143 25.2393 2.09802 25.1845C1.99523 25.1512 1.89244 25.118 1.78654 25.0837C1.69893 25.0555 1.61132 25.0273 1.52106 24.9983C0.938405 24.7761 0.326518 24.4761 -3.90783e-06 23.9258C-0.0931118 23.4626 -0.0765267 22.9966 0.176998 22.5892C0.879938 21.7848 1.93212 21.4007 2.90527 21.0328C3.04268 20.9798 3.18006 20.9267 3.3174 20.8736C3.71492 20.7201 4.11306 20.5684 4.51132 20.4169C4.90898 20.2654 5.30633 20.1131 5.70371 19.9609C6.73201 19.567 7.76078 19.1744 8.78982 18.7825C10.0108 18.3174 11.2312 17.8505 12.4512 17.3829C13.6496 16.9235 14.8482 16.4648 16.0473 16.0073C16.1579 15.9651 16.2686 15.9228 16.3826 15.8794C16.6084 15.7932 16.8342 15.707 17.06 15.6209C18.9265 14.9088 20.792 14.1945 22.6562 13.4766C24.4069 12.8025 26.1586 12.1312 27.9114 11.4624C28.0238 11.4195 28.1363 11.3766 28.2522 11.3324C28.4778 11.2463 28.7034 11.1602 28.929 11.0742C29.0396 11.032 29.1501 10.9898 29.2641 10.9463C29.3739 10.9044 29.4838 10.8625 29.597 10.8193C30.6915 10.4016 31.7857 9.98318 32.8796 9.56425C32.9723 9.52878 33.0649 9.49331 33.1604 9.45676C34.2403 9.04317 35.3199 8.62867 36.3991 8.21308C36.504 8.17268 36.6089 8.13228 36.717 8.09065C36.8224 8.05007 36.9278 8.00949 37.0364 7.96768C37.1421 7.92695 37.2479 7.88622 37.3569 7.84426C37.5694 7.76242 37.7819 7.68059 37.9944 7.59874C39.8309 6.89157 41.6699 6.19105 43.5106 5.49475C44.4434 5.14152 45.374 4.78493 46.2978 4.40859C47.2963 4.01631 48.269 3.91494 49.2187 4.49223Z" fill="#1E1E1E"/>
</g>
<defs>
<clipPath id="clip0_10_16">
<rect width="50" height="50" fill="white"/>
</clipPath>
</defs>
</svg>
